normalP091_grf.mot
version=1
nRows=15
nColumns=19
inDegrees=yes
endheader
time	1_ground_force_vx	1_ground_force_vy	1_ground_force_vz	1_ground_force_px	1_ground_force_py	1_ground_force_pz	1_ground_torque_x	1_ground_torque_y	1_ground_torque_z	2_ground_force_vx	2_ground_force_vy	2_ground_force_vz	2_ground_force_px	2_ground_force_py	2_ground_force_pz	2_ground_torque_x	2_ground_torque_y	2_ground_torque_z
            1.447000	            9.754767	          381.166969	          -24.715463	            0.214222	            0.002785	           -0.122922	            0.046290	            1.808761	           -0.117283	            0.043256	           -0.798592	            0.003149	            0.907027	            0.000644	           -0.250824	            0.072035	            0.003410	           -0.067636
            1.448000	           10.115373	          381.564225	          -24.844273	            0.214591	            0.002783	           -0.122478	            0.048904	            1.844731	           -0.120113	            0.022030	           -0.319740	           -0.003202	            0.907027	            0.000644	           -0.250824	            0.038664	           -0.000434	            0.056829
            1.449000	           10.533170	          382.919404	          -24.917267	            0.214957	            0.002781	           -0.122440	            0.051432	            1.869730	           -0.121667	            0.007569	           -0.080311	            0.005140	            0.907027	            0.000644	           -0.250824	           -0.045115	            0.001285	           -0.005690
            1.450000	           10.973332	          384.111996	          -25.051843	            0.215931	            0.002777	           -0.122263	            0.053865	            1.885493	           -0.122972	            0.023178	           -0.000608	            0.013028	            0.907027	            0.000644	           -0.250824	           -0.028422	            0.005492	            0.056891
            1.451000	           11.375520	          385.385737	          -25.125034	            0.216862	            0.002774	           -0.122417	            0.056064	            1.899359	           -0.123828	            0.007528	           -0.079619	           -0.018059	            0.907027	            0.000644	           -0.250824	            0.055451	            0.003660	            0.036161
            1.452000	           11.751340	          385.782521	          -25.238501	            0.217012	            0.002773	           -0.122150	            0.059358	            1.948644	           -0.127483	           -0.000419	           -0.159627	            0.004750	            0.907027	            0.000644	           -0.250824	            0.038710	           -0.003026	            0.015208
            1.453000	           12.152272	          386.737465	          -25.343059	            0.217654	            0.002770	           -0.122026	            0.061963	            1.971941	           -0.129222	           -0.016673	           -0.399005	           -0.003592	            0.907027	            0.000644	           -0.250824	            0.021861	            0.008987	           -0.088559
            1.454000	           12.569787	          388.011783	          -25.446882	            0.218465	            0.002766	           -0.121662	            0.064127	            1.979516	           -0.129822	           -0.021972	            0.239944	           -0.017258	            0.907027	            0.000644	           -0.250824	            0.022016	           -0.000987	            0.035980
            1.455000	           12.966678	          389.923451	          -25.610508	            0.219410	            0.002763	           -0.121853	            0.066930	            2.012668	           -0.132194	            0.046708	            0.161186	           -0.048181	            0.907027	            0.000644	           -0.250824	            0.105989	            0.014348	           -0.109464
            1.456000	           13.288756	          390.239452	          -25.708927	            0.220118	            0.002759	           -0.121437	            0.069154	            2.030779	           -0.133787	            0.023698	            0.160385	            0.005497	            0.907027	            0.000644	           -0.250824	            0.038777	            0.006147	           -0.067851
            1.457000	           13.635492	          391.035757	          -25.783261	            0.220711	            0.002756	           -0.120921	            0.071677	            2.055532	           -0.135533	           -0.023495	           -0.160273	            0.004530	            0.907027	            0.000644	           -0.250824	           -0.028373	            0.002049	            0.056718
            1.458000	           13.976610	          392.310087	          -25.933120	            0.221190	            0.002754	           -0.121078	            0.073962	            2.076032	           -0.137233	           -0.007565	            0.000307	           -0.002619	            0.907027	            0.000644	           -0.250824	           -0.028257	            0.008510	           -0.109641
            1.459000	           14.356238	          393.663760	          -26.097962	            0.222052	            0.002751	           -0.121129	            0.076940	            2.109785	           -0.139868	            0.013952	           -0.400000	            0.019277	            0.907027	            0.000644	           -0.250824	           -0.078895	            0.008266	           -0.088488
            1.460000	           14.607468	          395.496608	          -26.185336	            0.222896	            0.002747	           -0.120746	            0.079075	            2.140949	           -0.141750	            0.006870	           -0.240068	           -0.003414	            0.907027	            0.000644	           -0.250824	           -0.011790	            0.003256	            0.036282
            1.461000	           14.958394	          397.330286	          -26.364507	            0.223524	            0.002745	           -0.120787	            0.081436	            2.163141	           -0.143533	            0.007169	           -0.159234	           -0.010954	            0.907027	            0.000644	           -0.250824	            0.038710	           -0.002638	           -0.067920
